<svg xmlns="http://www.w3.org/2000/svg" viewBox="0 0 64 64" fill="none">
  <defs>
    <linearGradient id="paper" x1="10" y1="8" x2="56" y2="58" gradientUnits="userSpaceOnUse">
      <stop stop-color="#fffdf7" />
      <stop offset="0.58" stop-color="#fbf0d5" />
      <stop offset="1" stop-color="#ecd0a1" />
    </linearGradient>
    <linearGradient id="plot" x1="14" y1="46" x2="50" y2="18" gradientUnits="userSpaceOnUse">
      <stop stop-color="#2f9a91" />
      <stop offset="1" stop-color="#7bb05f" />
    </linearGradient>
    <radialGradient id="glow" cx="0" cy="0" r="1" gradientUnits="userSpaceOnUse" gradientTransform="translate(24 20) rotate(53.5) scale(41.2 45.7)">
      <stop stop-color="#fffdf7" />
      <stop offset="1" stop-color="#fffdf7" stop-opacity="0" />
    </radialGradient>
    <filter id="shadow" x="2" y="3" width="60" height="60" color-interpolation-filters="sRGB" filterUnits="userSpaceOnUse">
      <feDropShadow dx="0" dy="2" stdDeviation="2.6" flood-color="#7f6040" flood-opacity=".16" />
    </filter>
    <filter id="line-glow" x="10" y="12" width="44" height="40" color-interpolation-filters="sRGB" filterUnits="userSpaceOnUse">
      <feGaussianBlur stdDeviation="2.1" />
    </filter>
    <clipPath id="card-clip">
      <rect x="6" y="6" width="52" height="52" rx="15" />
    </clipPath>
  </defs>

  <g filter="url(#shadow)">
    <rect x="6" y="6" width="52" height="52" rx="15" fill="url(#paper)" />
    <rect x="6.75" y="6.75" width="50.5" height="50.5" rx="14.25" stroke="#6e5337" stroke-opacity=".2" stroke-width="1.5" />

    <g clip-path="url(#card-clip)">
      <rect x="6" y="6" width="52" height="52" fill="url(#glow)" />

      <g stroke="#d9c7a1" stroke-linecap="round" stroke-opacity=".78">
        <path d="M16 14v38" />
        <path d="M26 14v38" />
        <path d="M36 14v38" />
        <path d="M46 14v38" />
        <path d="M14 18h38" />
        <path d="M14 28h38" />
        <path d="M14 38h38" />
        <path d="M14 48h38" />
      </g>

      <path d="M15 49V16.5" stroke="#8f7352" stroke-linecap="round" stroke-width="3" />
      <path d="M15 49h34" stroke="#8f7352" stroke-linecap="round" stroke-width="3" />
      <path d="m15 16.5 2.5 2.5" stroke="#8f7352" stroke-linecap="round" stroke-width="2.4" />
      <path d="m15 16.5-2.5 2.5" stroke="#8f7352" stroke-linecap="round" stroke-width="2.4" />
      <path d="m49 49-2.5-2.5" stroke="#8f7352" stroke-linecap="round" stroke-width="2.4" />
      <path d="m49 49-2.5 2.5" stroke="#8f7352" stroke-linecap="round" stroke-width="2.4" />

      <path
        d="M16 47.5c3.2-.4 5.6-1.8 7.8-4.6 2.4-3 4.7-4.6 7.4-5 3-.5 5.1.4 7.7 1.3 2.3.8 4.5.4 6.2-1.4 1.6-1.7 2.8-4.1 5.9-8.8"
        stroke="#6bb9b2"
        stroke-linecap="round"
        stroke-linejoin="round"
        stroke-width="5.8"
        opacity=".18"
        filter="url(#line-glow)"
      />
      <path
        d="M16 47.5c3.2-.4 5.6-1.8 7.8-4.6 2.4-3 4.7-4.6 7.4-5 3-.5 5.1.4 7.7 1.3 2.3.8 4.5.4 6.2-1.4 1.6-1.7 2.8-4.1 5.9-8.8"
        stroke="url(#plot)"
        stroke-linecap="round"
        stroke-linejoin="round"
        stroke-width="4.4"
      />

      <g>
        <circle cx="24" cy="42.5" r="4.3" fill="#fff8eb" stroke="#48382a" stroke-width="1.6" />
        <circle cx="24" cy="42.5" r="2.25" fill="#f9d36d" />
        <circle cx="38.8" cy="39.2" r="4.3" fill="#fff8eb" stroke="#48382a" stroke-width="1.6" />
        <circle cx="38.8" cy="39.2" r="2.25" fill="#eb6f5a" />
        <circle cx="50.3" cy="23.8" r="4.8" fill="#fff8eb" stroke="#48382a" stroke-width="1.7" />
        <circle cx="50.3" cy="23.8" r="2.55" fill="#238b84" />
      </g>
    </g>
  </g>
</svg>
